<?xml version="1.0" encoding="utf-8"?>
<!-- Generator: Adobe Illustrator 28.0.0, SVG Export Plug-In . SVG Version: 6.00 Build 0)  -->
<svg version="1.1" id="Capa_1" xmlns="http://www.w3.org/2000/svg" xmlns:xlink="http://www.w3.org/1999/xlink" x="0px" y="0px"
	 viewBox="0 0 48 48" style="enable-background:new 0 0 48 48;" xml:space="preserve">
<style type="text/css">
	.st0{fill:url(#SVGID_1_);}
	.st1{fill:#FFFFFF;}
</style>
<linearGradient id="SVGID_1_" gradientUnits="userSpaceOnUse" x1="-0.1176" y1="47.8812" x2="48.8424" y2="-0.5988" gradientTransform="matrix(1 0 0 -1 0 48)">
	<stop  offset="0" style="stop-color:#C2A865"/>
	<stop  offset="1" style="stop-color:#A38B4B"/>
</linearGradient>
<path class="st0" d="M16,0h16c8.8,0,16,7.2,16,16v16c0,8.8-7.2,16-16,16H16C7.2,48,0,40.8,0,32V16C0,7.2,7.2,0,16,0z"/>
<g>
	<g>
		<polygon class="st1" points="35.9,12.1 35.9,22.5 32.5,22.5 32.3,22.5 29.2,22.5 29,22.5 25.9,22.5 27.4,25.6 29.2,25.6 
			29.2,29.4 29.2,31.6 26.3,25.6 24.9,22.5 19.3,10.4 18.8,9.3 15.7,9.3 15.7,22.5 12.1,22.5 12.1,12.1 9,12.1 9,35.9 12.1,35.9 
			12.1,25.6 15.5,25.6 15.7,25.6 18.8,25.6 19,25.6 22.2,25.6 20.8,22.5 18.8,22.5 18.8,18 18.8,15.9 21.8,22.5 23.2,25.6 
			29.2,38.7 29.2,38.7 30.2,38.7 30.9,38.7 32.3,38.7 32.3,37.3 32.3,36 32.3,25.6 35.9,25.6 35.9,35.9 39,35.9 39,12.1 		"/>
		<rect x="29.2" y="9.3" class="st1" width="3.1" height="12"/>
	</g>
	<rect x="15.7" y="26.7" class="st1" width="3.1" height="11.9"/>
</g>
</svg>
